<?xml version="1.0" encoding="utf-8"?>
<!-- Generator: Adobe Illustrator 25.4.0, SVG Export Plug-In . SVG Version: 6.00 Build 0)  -->
<svg version="1.1" id="Layer_1" xmlns="http://www.w3.org/2000/svg" xmlns:xlink="http://www.w3.org/1999/xlink" x="0px" y="0px"
	 viewBox="0 0 312.4 312.4" style="enable-background:new 0 0 312.4 312.4;" xml:space="preserve">
<style type="text/css">
	.st0{fill:#FFFFFF;}
</style>
<g>
	<path class="st0" d="M312.4,156.2c0-8.4-0.7-16.6-1.9-24.6l0,0h0c-4.6-29.2-17.4-55.7-35.9-77.2l-0.1-0.3l-0.1,0
		C245.7,21,203.4,0,156.2,0C116,0,79.2,15.3,51.5,40.4c-1.6,1.1-2.4,2.1-2.6,2.4C18.8,71.3,0,111.6,0,156.2c0,8.5,0.7,16.9,2,25l0,0
		l0,0c11.2,68.9,67.6,122.9,137.7,130.3l0.4,0.9l0.7-0.4c0.2-0.1,0.4-0.2,0.7-0.4c4.8,0.5,9.7,0.7,14.7,0.7
		C242.3,312.4,312.4,242.3,312.4,156.2z M114.2,228.6c12.4,0.5,19.8,5,21.9,13.4c4.6,18-14.6,48.2-26.5,56.6c-2.8-0.9-5.6-1.9-8.3-3
		c4.1-7.2,11.7-24.5,1.1-40.5c-9.3-14-26.3-15.4-46-17c-8.9-0.7-18.1-1.5-27.6-3.4c-8.2-13.2-14.3-27.8-18.1-43.3
		C37.4,219.5,71.7,226.8,114.2,228.6z M55.8,244.4c18.8,1.5,33.6,2.7,41.2,14.1c8.9,13.4,1.6,28.8-1.7,34.4
		c-24.9-11.1-46.2-28.9-61.7-51C41.3,243.3,48.9,243.9,55.8,244.4z M142.3,240.3c-2-7.8-8.5-17.4-27.9-18.2
		c-53.6-2.2-83.5-14.5-106.3-43.6c-1.1-7.3-1.7-14.8-1.7-22.4c0-7.4,0.5-14.6,1.6-21.6c6.1-3,12.9-3,20.8-3.1
		c12.3-0.1,27.6-0.3,45.5-12c13-8.6,25.1-7,37.9-5.4c14.6,1.9,29.7,3.8,46.1-9.4c9.9-8,20-13.6,29.7-19.1
		C206.9,75,223.2,65.8,230.5,44c1.6-4.9,2.5-10.4,2.7-16.3c13.4,8.1,25.4,18.2,35.7,29.8c14.3,45,8.5,101.5-26.1,118.8l-3.7,1.9
		c-16.4,8.1-28.2,14-31.3,24.8c-2.2,7.8,0.4,17.2,8.6,30.3c10.8,17.4,11,37.9,11,54.6c-6.9,3.8-14.2,7-21.7,9.6
		c0.3-11.7,0.1-39.6-7-62.6c-2.5-8.2-5-14.9-7.3-20.9c-5.5-14.5-8.2-21.8-2.5-29c0.1-0.1,7.1-8.3,25.9-19.3
		c8.9-5.2,35-26.1,38.4-53.1c3.1-25.2-4.7-39.3-11.2-41.2c-2.9-0.8-5.5,0.3-6.8,3l-0.4,0.8c-2.7,5.6-6.8,14-22,16.7
		c-19,3.3-41.9,18.2-54.3,35.3c-2.3,3.2-3.7,6-4.8,8.3c-0.4,1.1-1.7,1.7-2.9,1.3l-1-0.4c-2.1-0.8-5-1.9-8.8-2.6
		c-20.8-3.8-47.6,1.2-63.7,11.9c-12.8,8.5-21.6,5.2-27.4,3.1l-0.8-0.3c-2.8-1-5.6,0.3-6.9,3.3c-3.2,7.5,2.4,27.3,24.8,38.4
		c18.6,9.2,38.6,12.7,59.3,10.5c1.7-0.2,3.3-0.4,4.8-0.6c17.7-2.1,24.4-2.9,32.4,19.4c8.1,22.3-8.8,74.5-23.8,85.6
		c-7.9-0.8-15.6-2.3-23-4.3C130.5,288.4,147.2,259.5,142.3,240.3z M146.2,31.1c-6.7,6.8-17.9,8.9-33.4,6.4
		c-20.8-3.5-35-3.6-44.6-2.3c24-17.5,53.4-28.1,85.2-28.7C153.8,11.7,153.7,23.4,146.2,31.1z M55.3,45.6c3.8-2.5,17.4-8.3,56.4-1.8
		c17.6,2.9,30.8,0.2,39-8.2c9.1-9.2,9.5-22.6,9.1-29.1c9.4,0.2,18.6,1.3,27.5,3.2c2,13.8-1.1,24.9-9.2,32.9
		c-16.3,16.2-48.4,17.3-73,12.9c-30.1-5.4-47-0.4-59.4,3.3c-1.4,0.4-2.8,0.8-4.1,1.2C45.8,54.9,50.4,50.1,55.3,45.6z M47.4,65
		c11.8-3.5,27.9-8.2,56.5-3.1c26.2,4.7,60.6,3.3,78.6-14.7c9.1-9.1,12.9-21.2,11.4-35.9c1.5,0.4,3.1,0.8,4.6,1.3
		c9,34.6-25.3,59.4-56.4,77.2c-14.8,8.4-28,4.5-40.8,0.8c-13.3-3.9-25.9-7.6-37.8,3.2c-16,14.4-38.6,10.6-46.9,8.6
		c4.8-12.3,11.1-23.8,18.8-34.3C39.1,67.4,43,66.3,47.4,65z M33,110.7c13.9,0,25.6-4.2,34.7-12.4C77,90,87.4,93,99.4,96.6
		c13.4,3.9,28.7,8.4,45.8-1.4c32-18.3,67.1-43.8,60.4-80.4c7.3,2.6,14.4,5.7,21.2,9.3c0.2,6.6-0.6,12.6-2.4,17.9
		c-6.5,19.4-21.8,28-39.6,38c-10,5.6-20.3,11.4-30.6,19.7c-14.2,11.4-27.4,9.8-41.2,8c-13.4-1.7-27.2-3.5-42.2,6.4
		c-16.3,10.7-29.9,10.8-42,10.9c-6.8,0.1-13.3,0.1-19.5,2.1c1.3-6.4,2.9-12.7,5-18.9C18.1,109.3,24.9,110.7,33,110.7z M306,156.2
		c0,2.1,0,4.1-0.1,6.2c-8.5,11.4-17.3,18.6-25.1,24.9c-9.6,7.8-17.9,14.5-22.7,26.4c-7.5,18.8,1.8,40.3,5.2,47.2
		c-3,3.1-6.1,6-9.4,8.8c-2.4-10.1-5.7-18.8-8.7-26.6c-7.9-20.5-12.2-31.8,7.1-44.5c1.6-0.8,36-17.5,53.4-54.4
		C305.8,148.1,306,152.1,306,156.2z M264,216.1c4.2-10.4,11.5-16.3,20.8-23.8c6.3-5.1,13.2-10.7,20.2-18.5
		c-3.7,31.3-17,59.7-37,82.1C264.5,248,258.2,230.6,264,216.1z M249,193c-24,15.8-17.8,32-9.9,52.4c3.2,8.4,6.9,17.9,9.1,28.9
		c-4.6,3.6-9.4,6.9-14.4,10c-0.1-16.8-1.1-36.7-12-54.3c-7-11.3-9.5-19.3-7.8-25.2c2.3-8.1,13.1-13.4,28-20.8l3.7-1.9
		c26.8-13.4,46-56.1,33.4-111.5c12.4,17.8,21,38.3,24.8,60.5C290.3,171.2,253.3,190.8,249,193z M165.8,271.3c6.9-21.6,8.4-41.8,4-54
		c-9.8-27.1-21.5-25.7-39.2-23.6l-0.3,0c-1.4,0.2-2.9,0.4-4.4,0.5c-19.5,2.1-38.2-1.2-55.7-9.8c-14.4-7.1-20.7-17.8-21.9-25.4
		c-0.3-1.9-0.2-3.2,0-4c6.6,2.5,17.6,6.3,32.9-3.9c14.6-9.7,39.9-14.4,58.9-10.9c3.2,0.6,5.7,1.5,7.7,2.3l1.1,0.4
		c4.4,1.6,9.3-0.6,11-4.9c0.9-1.9,2.1-4.3,4-7c11.4-15.6,32.9-29.7,50.2-32.8c18.4-3.2,23.5-13.9,26.6-20.3l0-0.1
		c0.2,0.2,0.5,0.4,0.9,0.8c3.8,4,7.5,15.2,5.3,33.2c-3,24.8-28.5,44.4-35.2,48.3c-20,11.7-27.3,20.4-27.6,20.8
		c-8.1,10.1-4.5,19.6,1.4,35.4c2.2,5.9,4.7,12.5,7.2,20.5c7.2,23.6,6.9,53.4,6.6,62.9c-13.6,4.1-28.1,6.3-43,6.3
		c-2.6,0-5.3-0.1-7.9-0.2C154.7,298.4,161.1,286,165.8,271.3z"/>
</g>
</svg>
