<svg xmlns="http://www.w3.org/2000/svg" viewBox="0 0 498.77 307.97"><defs><style>.cls-1{fill:#000626;}.cls-2{fill:#090058;}.cls-3{fill:#2b2b7f;}</style></defs><g id="Layer_2" data-name="Layer 2"><g id="Layer_6" data-name="Layer 6"><path class="cls-1" d="M498.25,7.26A42.49,42.49,0,0,1,486.18,23c-18.27,15.13-38.62,27-59.38,38.34C412.49,69.1,398.3,77.12,384.06,85c-9,5-18,10-27,15l-3.63,2c-9.72,5.38-19.42,10.82-29.28,16-8.13,4.24-16.62,7.8-24.8,11.95A143.55,143.55,0,0,0,285.67,138c-1.59,1-2.74,2.81-3.92,4.37-1.71,2.28-3.43,4.56-5.11,6.86a173.62,173.62,0,0,0-7,84.56,170.73,170.73,0,0,0,25.86,65.53A129.45,129.45,0,0,1,248.89,308c-2.54,0-5.07-.07-7.57-.22-1.51-.08-3-.2-4.5-.33-2.67-.25-5.33-.58-7.95-1A128.58,128.58,0,0,1,199,298a369.1,369.1,0,0,0,18.26-62.58,370.51,370.51,0,0,0,7-74.75,16.14,16.14,0,0,0-4.56-8.63,90.79,90.79,0,0,1-7.12-8.28A21.55,21.55,0,0,0,203.1,137c-14.11-5.5-28.28-10.87-42.17-16.87-7.34-3.17-14.25-7.34-21.35-11.09l-1.62-.86q-22.32-11.56-44.68-23C74.85,75.59,56.37,66.19,38,56.54c-9.94-5.23-19.53-11.21-27.49-19.2-4-4.05-6.85-9.31-10.22-14L0,20c4-5.44,9.2-3.28,13.8-1.73a242.29,242.29,0,0,0,34,8.3C55,27.86,62.07,26.88,69.17,28S83.72,29,91,29.46q26.15,1.75,52.28,3.6c2.07.15,4.18-.57,6.1,1.32.6.59,2.89-.87,4.31-.69,7.86,1,15.68,2.22,23.54,3.23,9.93,1.28,19.91,2.25,29.83,3.66,6.31.91,12.57,2.26,18.81,3.64a23.48,23.48,0,0,1,7.19,2.66c.9.55,1.36,1.77,2,2.83a4.88,4.88,0,0,0,1,1.36,104.73,104.73,0,0,0,11.33,8.62c1,.64,3.21-.26,4.66-.92a6,6,0,0,0,2.49-2.61,16.29,16.29,0,0,1,6.62-6.62,63.19,63.19,0,0,1,7.6-3.49c10.57-4.44,21.68-6.74,32.93-8.65C314,35.31,326.35,33,338.61,30.48a333,333,0,0,1,46.95-6.89c13.66-.88,27.33-2.28,40.84-4.42,18-2.86,36-6.13,53.07-13,4.28-1.72,8.29-4.1,12.56-5.81,1.36-.55,3.79-.52,4.68.33C498.36,2.31,499.48,4.49,498.25,7.26Z"/><path class="cls-2" d="M351.53,90.41l-5.31,2.64c-28,13.85-51.67,24.4-68.2,31.51a195.22,195.22,0,0,0-23.74,77.87,200.33,200.33,0,0,0,6.16,67.42c4.32,17.22,6.48,25.82,12.32,34.54l.84,1.22A129.8,129.8,0,0,1,248.89,308c-2.54,0-5.07-.07-7.57-.22-1.51-.08-3-.2-4.5-.33-2.67-.25-5.33-.58-7.95-1L252.48,59.66c5.21-2.24,12.57-5.21,21.59-8.24,1.29-.43,2.62-.86,4-1.29,21.6-6.87,39.49-9.65,76.06-14.1,47.27-5.76,40.95-4,53.47-6.12,51-8.67,78.28-24.74,79.89-21.58C489.94,13.23,425,53.68,351.53,90.41Z"/><path class="cls-3" d="M258.69,129.1c-1.37,21.82-3.89,27.11-5.6,38.55-.56,3.79-.8,6.73-1.13,10.57-1.2,14-2.35,27.37-2.78,46.34-.25,10.88.06,9.2-.21,17.44-.06,1.88-.56,16.19-2.47,32.92-1.05,9.16-3.07,21.29-5.18,32.83-1.51-.08-3-.2-4.5-.33Q246,191.15,255.23,74.88q1.61,10,3.22,20A243.87,243.87,0,0,1,258.69,129.1Z"/><path class="cls-2" d="M226,60.91Q205.89,57.06,184.27,54A878.35,878.35,0,0,0,76.09,45.47C100.92,69.3,137.08,97.36,186,117a331,331,0,0,0,37.21,12.41c3.32-4.69,14.87-22.29,11.53-45.23A59.67,59.67,0,0,0,226,60.91Z"/></g></g></svg>