<svg xmlns="http://www.w3.org/2000/svg" viewBox="0 0 484.39 186.71"><defs><style>.cls-1{fill:#454c52;}.cls-2{fill:#091016;}.cls-3{fill:#e6e7e8;}</style></defs><g id="Layer_2" data-name="Layer 2"><g id="Layer_22" data-name="Layer 22">

<path class="cls-1" d="M481.18,44.47c-.74-2.79-3.71-4.88-7.14-5a78,78,0,0,1-8.1-.19c-10.83-1.43-21.33-4.4-31.87-7.22-10.95-2.93-21.72-6.58-32.86-8.86-14-2.86-28.09-5.57-42.09-8.53-7-1.48-13.88-3.66-20.86-4.71-8.66-1.29-17.35-2.68-26.05-3.82C299,4.42,285.82,2.36,272.47,3.28c-7.81.54-15.71,1.72-21.35,8.1-2.18,2.46-5.69,4-5.92,7.95a7.88,7.88,0,0,1-.37,1.85c-.61,1.32-1.13,3.16-2.7,3.19s-2.64-1.51-3-3.2a2.45,2.45,0,0,0-.24-.58h0a4.49,4.49,0,0,0-1.49-5.11c-1-1-.46-3-2.36-3.26-2.3-5-6.39-7.89-11.42-9.68C210.81-2,197.67,1,184.69.87a58.47,58.47,0,0,0-8,.74c-7,.92-14,2-21,2.87S142,6.59,135.2,8c-8.32,1.71-16.59,3.82-24.91,5.66C89.21,18.31,68,22.26,47.38,29a190.61,190.61,0,0,1-29.84,7.53c-4.08.62-8.17-.1-12.22.81A6.26,6.26,0,0,0,.11,42.39c-.47,2.38.57,4.53,2.7,6.12a31.73,31.73,0,0,0,16.63,6.43c7.81.68,15.6,1.56,23.42,2.15,12.22.94,24.38,2.64,36.48,4.79,13,2.3,26,4.74,38.84,7.76,11.7,2.76,23.41,5.61,35.16,8,9.84,2,19.57,4.51,29.48,6.18.59.74,1.48.74,2.31,1a59.62,59.62,0,0,1,9.45,3c4.83,2.2,7.91,6,10.92,10.19,3.7,5.13,7.73,10,9.85,16.09.82,3.93-.92,7.85,0,11.78-1.37,5.46-.92,11-.62,16.54.14,2.57.21,9.19.46,9.91a1.74,1.74,0,0,0,.11.25,8.77,8.77,0,0,1,.06,1.75c-.05,3-.08,5.92-.16,8.89,0,1.08.21,8.19.26,9.27-.18,2.36-.72,4.72-.2,7.1-1.09,2.28-1.92,4.59-1.27,7.18h50.59c-.91-1-.52-2.66-1.79-3.45a.54.54,0,0,0-.19-.43c-.81-.65-.63-1.47-.39-2.29-.06-.54-.13-1.07-.2-1.6a.87.87,0,0,0-.3-1.37c-1-8-4.69-10.63-4.37-10.62-.62-.19-1.18-3.76-1.26-4.24-.63-4.26-.65-8.57-1.44-12.83a33,33,0,0,1,.87-14.73c.63-2.32,1.61-5,1-7.12-1.17-4.35.9-8.12,1.76-11.91.55-2.48,2.33-5.23,3.69-7.79,1.79-3.34,4.46-6,6.71-9s4.29-6.87,9.14-6.66c.5,0,1-.75,1.54-1.11a44.27,44.27,0,0,1,24.41-8.33c6.4-.23,12.82-.8,18.91-3.3a37.3,37.3,0,0,1,10.37-2.35,161.26,161.26,0,0,0,24.32-4.93,170.17,170.17,0,0,0,24.72-5.86,38.29,38.29,0,0,1,12.4-2.09,58.65,58.65,0,0,0,10-.81c6-1,12.05-2,18.17-2.38,6.77-.41,13.49-1.33,20.29-1.59,5.21-.2,10.4-1.05,15.61-1.59,6.79-.7,13.29-2.28,19.09-6.09C480.8,50.15,482,47.58,481.18,44.47ZM220.59,11.31h0ZM349.52,68.76c-.25.58-.8.59-1.31.69.24-.62.75-.72,1.32-.72A0,0,0,0,1,349.52,68.76Z"/>

<path class="cls-2" d="M331.56,20.51l-.93-.12-.15,0a63.88,63.88,0,0,0-8.11-2.9l-1.06-.14c-1.41-.51-2.84-1-4.31-1.39l-2.6-.35c-.15,0-.3-.06-.46-.09A33.89,33.89,0,0,0,306.36,13l-.57-.21c-1.27-.47-2.55-.93-3.83-1.37l-.15,0h0l-.45-.06-.56-.2a60.54,60.54,0,0,0-23.5-5,58.88,58.88,0,0,0-29.36,8,1.7,1.7,0,0,1,1.45-1.22c2.3-5,6.39-7.89,11.42-9.68,12.8-4.55,25.94-1.54,38.92-1.66a58.47,58.47,0,0,1,8,.74c7,.93,14,2,21,2.87s13.74,2.12,20.5,3.52c8.32,1.72,16.58,3.83,24.91,5.66C395.18,19,416.42,22.9,437,29.63a189.5,189.5,0,0,0,29.84,7.53c4.08.63,8.17-.1,12.22.81A6.27,6.27,0,0,1,484.28,43c.47,2.37-.57,4.52-2.7,6.11A31.73,31.73,0,0,1,465,55.58c-6.35.56-12.7,1.23-19.06,1.79-3.09.21-7.57.57-13,1.19-8.21.95-10.24,1.84-20,3-3.76.45-7.75.84-8.41.91-7.12.69-7.61.56-11,1-7.79,1-11.81,2.51-12,2-.12-.33,1.28-1.39,11.41-5.91,15-6.68,22.33-10.9,30.64-11.65,9.39-.85,11.35-1.71,11.36-2.35,0-1.45-9.91-2-23.37-6.52a110.6,110.6,0,0,1-13.36-5.51l-14.09-1.89c-1.06-.43-2.14-.84-3.24-1.2a45.08,45.08,0,0,0-20.77-5.2c-.63,0-1.26,0-1.89,0-1.22-.22-2.44-.4-3.68-.52a58.88,58.88,0,0,0-16.34-2.53l-.5-.16-2.32-.31Z"/>

<path class="cls-2" d="M152.9,20.42l.92-.13.16,0a61.88,61.88,0,0,1,8.11-2.91l1-.14c1.41-.5,2.84-1,4.31-1.39l2.6-.35.46-.09a34,34,0,0,1,7.59-2.53l.57-.2c1.27-.47,2.54-.93,3.82-1.37l.15,0h0l.45-.06.56-.2a60.8,60.8,0,0,1,23.5-5,58.83,58.83,0,0,1,29.37,8,1.71,1.71,0,0,0-1.45-1.22c-2.3-5-6.39-7.89-11.43-9.68-12.8-4.55-25.93-1.54-38.92-1.66a56.8,56.8,0,0,0-8,.74c-7,.92-14,2-21,2.87S142,7.14,135.27,8.54c-8.32,1.72-16.59,3.83-24.91,5.67C89.28,18.86,68,22.81,47.44,29.54A190.3,190.3,0,0,1,17.6,37.06c-4.08.63-8.16-.09-12.22.82a6.25,6.25,0,0,0-5.2,5.06c-.48,2.38.57,4.52,2.69,6.12A31.85,31.85,0,0,0,19.5,55.49c6.36.55,12.71,1.23,19.07,1.79,3.08.21,7.56.56,13,1.19,9.49,1.09,14.24,1.6,20,3,6.61,1.59,13.41,2.33,20,4,1,.24,3.45.88,4,0,.79-1.26-2.82-4.86-4-6C87.85,55.89,79.63,50,60.89,47.82c-9.4-.85-11.35-1.72-11.37-2.35,0-1.45,9.92-2,23.37-6.52a113.28,113.28,0,0,0,13.37-5.51l14.09-1.89c1.06-.44,2.13-.85,3.24-1.21a44.91,44.91,0,0,1,20.77-5.19c.62,0,1.26,0,1.89,0,1.21-.23,2.44-.4,3.68-.52a58.51,58.51,0,0,1,16.34-2.53l.5-.16,2.31-.31Z"/>

<path class="cls-3" d="M394.52,47.47c-6.18-1.3-15.57-3.33-27-6-10.58-2.48-23.76-6.46-40-10-39.95-8.73-39-14.95-52.5-12.5-16.72,3-22,13.67-37,11-8.7-1.55-9.76-5.77-20-10-18.41-7.61-35.1,2.14-60.5,9.5a234.48,234.48,0,0,1-60,9c8.61,11.67,17.45,17.15,24,20,13.84,6,18.5.73,37,8,4.08,1.6,9.87,4.22,24.41,10,5,2,4.95,1.93,6.09,2.46,8,3.67,15.62,7,22,15,7,8.73,8.71,18.15,10.5,28.5,3.33,19.24.68,32.79,2,33,2.74.42,11.83-52.5,16-52,1,.12,1.29,3.33,3,25,1.63,20.59,2.18,27.87,6,37s9,15.48,10,15c2-.94-5.55-16.82-7-42-1-16.55,1.49-24,4-29a68.74,68.74,0,0,1,10-14,81.45,81.45,0,0,1,12-11,34.25,34.25,0,0,1,8-8c3.39-2.41,8.77-5.29,22-7,10.09-1.31,12.13-.31,21-1,9.88-.78,16.65-2.68,28-6A226.87,226.87,0,0,0,394.52,47.47Z"/></g></g></svg>