<svg xmlns="http://www.w3.org/2000/svg" viewBox="0 0 464.63 283.84"><defs><style>.cls-1{fill:#fff;}</style></defs><g id="Layer_2" data-name="Layer 2"><g id="Layer_3" data-name="Layer 3"><path d="M464.63,17.94v1.2c-4.05,9.69-7.09,19.82-14.26,28A109.9,109.9,0,0,1,420.12,71c-19.63,10.75-39.33,21.4-58.67,32.66-9.85,5.74-18.71,13.19-28.53,19-7.76,4.59-16.35,7.75-24.51,11.68-10.85,5.24-22,10.08-32.32,16.19-4.25,2.5-7,7.71-10.11,11.95-3.37,4.65-6.32,9.59-9.4,14.44-.75,1.18-2,2.63-1.81,3.73,2.59,14,4.25,28.37,8.43,41.93,5.85,19,13.63,37.34,20.59,56,.48,1.28,1,2.53,2.13,5.29-11.39-.87-21.8-1.91-32.25-2.39-6.33-.29-12.71.33-19.07.44-8.71.14-17.43.05-26.14.34-5.07.16-10.11.87-16.49,1.45,2-4.47,3.46-7.8,5-11.08,11.65-24.81,19.46-50.82,25.57-77.51,2.36-10.28,2.33-18.6-5.64-26a9.42,9.42,0,0,1-2.42-4.08c-2.83-9.51-9.93-14.34-18.58-17.93-14.24-5.9-28.48-11.83-42.39-18.44-12.79-6.08-26.15-11.71-37.42-20C103.19,99.1,88.83,93,74.94,85.69,60,77.79,45.1,69.6,30.62,60.84,19.92,54.35,12.45,44.24,5.3,34.2,2.7,30.57,1.72,25.79,0,21.54v-3.6C2.25,12.7,4.42,7.42,6.86,2.27,7.34,1.25,8.89.74,10,0c.55,1.11,1.46,2.17,1.6,3.33,1.14,9.91,9.24,14.81,18.36,10.74,3.86-1.72,6.67-1.44,9.55,1.83,1.65,1.87,4,3.92,6.33,4.22a93.82,93.82,0,0,0,17.65.65c7.94-.5,16.14,1.78,23.85-2.66,1.57-.91,5.32.75,7.42,2.18,4.84,3.31,9.34,6.24,15.65,3.61,1.8-.74,4.55.11,6.64.84,10.32,3.62,20.37,9.53,30.91,10.55,9.12.89,18.22,6.49,27.9,2.14,1.23-.55,3.8.93,5.31,2.06,11.11,8.29,24,9.59,37.28,10.81,6,.55,13.95.91,15.28,10.27.28,1.91,3.23,4.62,5.13,4.79,1.74.15,5.05-2.4,5.39-4.2,2.05-10.57,10.8-9.41,18-10.9,8.6-1.79,17.41-2.82,25.84-5.19,7.54-2.12,14.53-6.2,22.08-8.28,4.18-1.14,9.16.86,13.51.05,11.1-2.07,21.66-5.83,31.1-12.38a7.48,7.48,0,0,1,6.07-.47c5.64,2.27,10.17.9,14-3.36,3-3.42,6.23-3.4,10.21-1.79,3.2,1.28,7.11,3,10.06,2.23,7.55-2.08,15.13,1.15,22.9-1.43,3.14-1,7-.87,9.35-3.67,2.88-3.45,5.74-3.86,9.4-1.67,4.13,2.46,8.53,2.19,11.53-1.23s5-8.09,7.88-12.85c.77.91,3.48,2.71,3.3,4.14C458.67,10,463.9,13.08,464.63,17.94Z"/><path class="cls-1" d="M176.24,67.73c.58-1.55,1-2.8,1.68-4.51,3,2.47,5.57,4.78,8.33,6.86,2.56,1.92,4.18,4.65,9,2.63,3-1.26,8,2,12,3.5.58.22,1.11,2.05.83,2.83-2.46,6.94,0,12.92,3.14,19-6.07.64-3.53,6.1-3.11,8.51,1.09,6.32.84,7.53-5.41,12.67-4.71,3.87-7.86,1.72-11.26-1.46-.12-.11-.37-.08-.37,1.24-6.28.78-12.56,2.14-18.85,2.15a35.76,35.76,0,0,1-13.33-3c-5.2-2.16-9.77-5.85-15-8.07-5.53-2.38-11.53-3.64-17.2-5.72-4.66-1.7-10.24-2.8-13.48-6.08-6.32-6.41-13.34-10.21-21.91-12.78-6.28-1.88-11.78-6.42-17.61-9.8C66.88,71.76,59.92,68,53.28,63.77,44.57,58.2,36.27,52,27.5,46.51,22,43.09,22.21,37.39,21,32.38c-.26-1.11,3.08-3.42,5.08-4.67C32.86,23.5,40,27.48,47,27.26a160.71,160.71,0,0,1,27.89,1.62c4.73.68,9.08,3.87,13.68,5.72,2.18.87,5.1,2.45,6.74,1.68,8.71-4,16.58-3.36,24.74,1.67,3.41,2.1,8,2.08,11.87,3.66,3.65,1.51,6.93,3.89,10.41,5.81,1.73,1,3.51,2.41,5.33,2.5C160.32,50.58,168.33,58.51,176.24,67.73Z"/><path class="cls-1" d="M287.18,117.35c-7.73,5.44-11.89,5.33-16.11-.67-2.24-3.19-.6-14.11,2.88-16.14l-6-2.45c0-7.07-.09-13.58.1-20.08a3.58,3.58,0,0,1,2.18-2.6c5-1.17,10.19-1.54,15-3.17,3-1,5.71-3.5,8-5.87,3.93-4.12,5.47-4.09,7.82,1.41A47.78,47.78,0,0,0,303.71,63c3.92-9.07,12.77-10.5,20.65-13.4.88-.33,2.07.11,2.89-.28,8.22-3.8,16.67-7.2,24.48-11.71s14.93-5.57,22.92-1.26c1.27.68,4.06.58,4.92-.33,9.36-9.81,21.51-8.58,33.33-8.94,5.9-.18,11.79-1.12,17.68-1,4,.09,8,1.4,12,2.27.43.09.81.86,1.05,1.39,2.12,4.66-1.08,14.19-5.51,16.91-2.32,1.43-4.41,3.23-6.67,4.78q-15,10.28-30,20.49c-5.07,3.43-10.08,7-15.37,10a73.09,73.09,0,0,1-11.5,5c-3.77,1.38-7.41,1.88-10.6,5.48-4.18,4.7-10.16,7.82-15.47,11.47a5.38,5.38,0,0,1-3.36.48c-7.16-.77-13.08,2.08-17.81,6.93-7.76,8-18.21,8.66-28,10.45C295.78,122.46,291.43,119,287.18,117.35Z"/></g></g></svg>