<svg xmlns="http://www.w3.org/2000/svg" viewBox="0 0 430.19 272.85"><defs><style>.cls-1{fill:#02080f;}.cls-2{fill:#022249;}.cls-3{fill:#001a3f;}</style></defs><g id="Layer_2" data-name="Layer 2"><g id="Layer_10" data-name="Layer 10"><path class="cls-1" d="M292.3,151.52h0Z"/><path class="cls-1" d="M429.41,20.5c-.5-4.81-4.41-8.47-8.3-7.53a29.45,29.45,0,0,0-8.35,3.3C401.43,23,389.61,28.46,376.37,30.55c-11,1.73-21.92,4.14-32.87,6.26L320,40.22l-1.62.24c-9.13,1.35-18.35.62-27.53,1.32-1.87.14-3.74.31-5.59.52-18,2-35.1,6.92-50.91,16.09a45.13,45.13,0,0,0-15.91,16c-3.4,3.9-5.64,8.53-8,13.06-3.91-1.68-6.91-4.66-10-7.36a159.33,159.33,0,0,0-60.55-33l-2.92-.83c-4.64-1.34-9.3-2.64-13.94-4-3.21-.93-6.59,0-9.72-1.21L113,41a1.59,1.59,0,0,0-1.57-.19c.48.91,1,1.83,1.46,2.75l.83.5c-.48.56-.76.09-1.07-.2l-4.72-3-1.37-.18a169.61,169.61,0,0,1-25.77-4.94C74.25,33.82,67.67,32,61.11,30.08c-.86-.25-1.61-.86-2.5-.15-.46,0-.52-.24-.49-.59a10.16,10.16,0,0,0-4.27-1.62c-.78.35-1.51.51-1.86-.56-1-.72-1.93-1.63-3.33-1.4-5.9-3.22-11.84-6.37-17.69-9.68-6.46-3.65-12.82-7.46-19.23-11.2-.26-.52-.74-.49-1.21-.51C9.14,1.9,6,2,4.24,0H2.88C-.25,1.62-.48,4.51.54,7.18c1.89,5,3.91,10,7.47,14.08.5.87,1,1.78,1.52,2.61C19.82,39.06,32.39,52.31,45.08,65.44c8.44,8.74,17.64,16.68,26.75,24.71l1.27,1.12c6.46,5.7,12.9,11.42,19.41,17s13.28,11.37,20.12,16.81Q133,141.31,153.48,157.3a109.84,109.84,0,0,1,14.06,13.3c-3.59-.65-2,2-1.78,3.18,1.07,5.41,0,10.79-3.77,14.18-2.8,2.54-3.5,5.43-4.86,8.33a14.12,14.12,0,0,0-.77,1.89c-1.36,4.2-5,7.07-6.61,11-2.56,6.36-6.29,12-10.11,17.6-3.64,5.36-8.23,9.9-12.91,14.29a127.21,127.21,0,0,0,61.52,31.74A162.67,162.67,0,0,1,200.31,249a83,83,0,0,1,6.63-12.8,174.19,174.19,0,0,1,21.65-26.51q4.82-4.89,9.87-9.57l0-.09.51-.41c7.71-7.16,15.72-14,23.79-20.73l.09-.07a.46.46,0,0,0,.07-.07l.06,0c15.17-12.63,30.9-24.85,48-34.82,7.54-4.4,15.4-8.2,23.26-12,1.8-1.25,3.63-2.46,5.5-3.58.19-.13.39-.24.59-.36,1.1-.88,2.21-1.75,3.32-2.61,5.76-4.46,10.64-10,16.68-14.07.53-.36,1.06-.71,1.61-1,4.14-2.53,6.45-6.91,10.11-9.86a240.9,240.9,0,0,0,19.86-18.46,221.27,221.27,0,0,0,20.81-24C418.55,50,424.23,42,427.34,32.47c.78-2.39.58-5.36,2.85-7.22V21.16ZM26.1,21.16h0v0a1.39,1.39,0,0,1-.67-1.33h0s0,0,0,0h0v0a1.41,1.41,0,0,1,.67,1.33h0Zm16.69,3.95a.34.34,0,0,1,.22-.22c.76,0,.75.54.82,1.05C43.33,25.86,42.75,25.87,42.79,25.11ZM292.31,151.53h0Z"/><rect class="cls-1" x="292.3" y="151.52" width="0.01" height="0.01"/><path class="cls-2" d="M167.75,170.87c9,2.06,16,8.65,18,17,2,8.52-2,15.45-3,17a66.7,66.7,0,0,1-56,36Z"/><path class="cls-3" d="M231.75,124.87c.1-5.75-.79-13.41-6-19-3.63-3.9-6.54-3.75-8-7-3.9-8.68,9.19-26.81,17-25,5.26,1.22,7.29,11.27,8,16a121,121,0,0,1-23,118c-17,30.53-21.88,36.54-23,36-2.33-1.12,8-32.25,20-59,4.11-9.17,7.91-16.72,11-29A132.9,132.9,0,0,0,231.75,124.87Z"/><path class="cls-2" d="M173.75,80.87a363.43,363.43,0,0,0-61-24c-12.54-3.63-25.46-6.58-55-15-10.1-2.88-18.41-5.33-24-7a410.86,410.86,0,0,0,27,32,421.5,421.5,0,0,0,114,86,49.66,49.66,0,0,0,15-29C193,99.56,175.68,82.7,173.75,80.87Z"/></g></g></svg>